<?xml version="1.0" encoding="UTF-8"?>
<svg width="46px" height="46px" viewBox="0 0 46 46" version="1.1" xmlns="http://www.w3.org/2000/svg" xmlns:xlink="http://www.w3.org/1999/xlink">
    <!-- Generator: Sketch 61 (89581) - https://sketch.com -->
    <title>编组 2</title>
    <desc>Created with Sketch.</desc>
    <g id="消息备份" stroke="none" stroke-width="1" fill="none" fill-rule="evenodd">
        <g id="画板备份-17" transform="translate(-276.000000, -219.000000)">
            <g id="编组-3" transform="translate(256.000000, 136.000000)">
                <g id="编组-2" transform="translate(20.000000, 83.000000)">
                    <rect id="矩形" fill="#1890FF" x="0" y="0" width="46" height="46" rx="2"></rect>
                    <g id="编组" opacity="0.9195266" transform="translate(13.000000, 12.000000)" fill="#FFFFFF" fill-rule="nonzero">
                        <path d="M4.28571429,5.35714286 C4.28571429,8.31581765 6.68420974,10.7142857 9.64285714,10.7142857 C12.6015045,10.7142857 15,8.31579026 15,5.35714286 C15,2.39846807 12.6015045,0 9.64285714,0 C6.68418235,0 4.28571429,2.39849545 4.28571429,5.35714286 Z" id="路径"></path>
                        <path d="M13.1624803,11.5838509 C12.2499322,12.1542726 11.1646232,12.4850246 10.0000543,12.4850246 C8.83548527,12.4850246 7.75017631,12.1542461 6.83762817,11.5838509 C2.86467206,12.8737838 0,16.5274169 0,20.8332739 C0,21.0858193 0.009846471,21.3361439 0.0291867846,21.5838509 L19.9708132,21.5838509 C19.9902078,21.3361439 20,21.0858193 20,20.8332739 C20,16.5273904 17.1353822,12.8738102 13.1623447,11.5838509 L13.1624803,11.5838509 Z" id="路径"></path>
                    </g>
                </g>
            </g>
        </g>
    </g>
</svg>