<?xml version="1.0" encoding="UTF-8"?>
<svg width="46px" height="46px" viewBox="0 0 46 46" version="1.1" xmlns="http://www.w3.org/2000/svg" xmlns:xlink="http://www.w3.org/1999/xlink">
    <!-- Generator: Sketch 61 (89581) - https://sketch.com -->
    <title>编组 2</title>
    <desc>Created with Sketch.</desc>
    <g id="消息备份" stroke="none" stroke-width="1" fill="none" fill-rule="evenodd">
        <g id="画板备份-10" transform="translate(-276.000000, -229.000000)">
            <g id="编组-3" transform="translate(256.000000, 136.000000)">
                <g id="编组-2" transform="translate(20.000000, 93.000000)">
                    <rect id="矩形" fill="#1890FF" x="0" y="0" width="46" height="46"></rect>
                    <path d="M20.993,39.918 L20.993,37.911 L22.613,37.911 L22.613,37.083 L20.993,37.083 L20.993,35.976 L22.226,35.976 L22.226,35.184 L20.993,35.184 L20.993,34.086 L22.415,34.086 L22.415,33.267 L21.551,33.267 C21.758,32.844 21.947,32.367 22.127,31.836 L21.326,31.557 C21.146,32.16 20.93,32.727 20.678,33.267 L19.814,33.267 L20.327,33.015 C20.093,32.511 19.85,32.043 19.598,31.629 L18.878,31.971 C19.112,32.358 19.337,32.79 19.544,33.267 L18.617,33.267 L18.617,34.086 L20.156,34.086 L20.156,35.184 L18.833,35.184 L18.833,35.976 L20.156,35.976 L20.156,37.083 L18.554,37.083 L18.554,37.911 L20.156,37.911 L20.156,39.918 L20.993,39.918 Z M16.25,39.873 L16.25,39.369 L17.456,39.369 L17.456,39.855 L18.212,39.855 L18.212,36.534 L15.917,36.534 C15.989,36.318 16.061,36.084 16.124,35.85 L17.969,35.85 L17.969,34.266 L18.419,34.266 L18.419,33.51 L17.969,33.51 L17.969,31.926 L14.774,31.926 L14.774,32.655 L15.737,32.655 C15.728,32.943 15.719,33.222 15.701,33.51 L14.504,33.51 L14.504,34.266 L15.638,34.266 C15.602,34.554 15.557,34.842 15.512,35.121 L14.72,35.121 L14.72,35.85 L15.341,35.85 C15.107,36.696 14.756,37.362 14.297,37.866 L14.747,38.577 C15.026,38.271 15.278,37.92 15.494,37.515 L15.494,39.873 L16.25,39.873 Z M17.195,33.51 L16.475,33.51 C16.493,33.231 16.502,32.943 16.511,32.655 L17.195,32.655 L17.195,33.51 Z M17.195,35.121 L16.286,35.121 C16.331,34.851 16.376,34.563 16.412,34.266 L17.195,34.266 L17.195,35.121 Z M17.456,38.622 L16.25,38.622 L16.25,37.308 L17.456,37.308 L17.456,38.622 Z M26.933,39.954 C27.608,39.648 28.094,39.207 28.391,38.649 C28.697,38.037 28.859,37.227 28.886,36.219 L28.886,33.249 L28.157,33.249 L28.157,36.309 C27.977,36.408 27.797,36.507 27.617,36.597 L27.617,32.988 C28.229,32.763 28.706,32.52 29.066,32.25 L28.616,31.602 C28.184,31.926 27.608,32.205 26.87,32.457 L26.87,36.507 C26.87,36.777 26.789,36.957 26.627,37.047 L26.852,37.776 C27.293,37.56 27.707,37.353 28.085,37.137 C28.022,37.515 27.932,37.857 27.806,38.154 C27.572,38.622 27.14,39 26.528,39.306 L26.933,39.954 Z M26.222,39.891 L26.222,38.19 C26.321,38.154 26.429,38.118 26.546,38.082 L26.546,37.254 C26.438,37.29 26.33,37.335 26.222,37.371 L26.222,32.718 L26.654,32.718 L26.654,31.926 L23.414,31.926 L23.414,32.718 L23.819,32.718 L23.819,38.055 C23.648,38.091 23.477,38.118 23.306,38.154 L23.504,38.937 C24.17,38.793 24.827,38.622 25.457,38.433 L25.457,39.891 L26.222,39.891 Z M30.047,39.882 L30.047,37.785 L30.227,38.442 L30.677,38.442 C31.145,38.442 31.388,38.118 31.388,37.488 L31.388,32.16 L29.309,32.16 L29.309,39.882 L30.047,39.882 Z M25.457,33.852 L24.611,33.852 L24.611,32.718 L25.457,32.718 L25.457,33.852 Z M30.416,37.722 L30.047,37.686 L30.047,32.898 L30.668,32.898 L30.668,37.326 C30.668,37.587 30.578,37.722 30.416,37.722 Z M25.457,35.724 L24.611,35.724 L24.611,34.626 L25.457,34.626 L25.457,35.724 Z M24.611,37.875 L24.611,36.498 L25.457,36.498 L25.457,37.632 C25.178,37.722 24.899,37.803 24.611,37.875 Z" id="群聊" fill="#FFFFFF" fill-rule="nonzero"></path>
                    <g id="编组" transform="translate(11.000000, 7.000000)" fill="#FFFFFF" fill-rule="nonzero">
                        <path d="M20.8428943,8.55628383 C21.6264617,7.76403532 22.0966022,6.81333712 22.0966022,5.70418922 C22.0966022,3.64434311 20.3727538,1.90139641 18.3354784,1.90139641 C19.1190459,2.85209461 19.5891863,4.11969221 19.5891863,5.54573952 C19.5891863,7.13023652 18.8056189,8.71473353 17.7086245,9.66543173 C20.2160403,10.7745796 21.9398887,12.9928754 22.5667427,15.6865203 L24.1338776,15.6865203 L24.1338776,14.1020233 C24.4473046,11.5668281 22.8801696,9.50698203 20.8428943,8.55628383 Z M6.58196661,9.66543173 C5.48497218,8.55628383 4.70140472,7.13023652 4.70140472,5.38728982 C4.70140472,3.96124251 5.17154519,2.69364491 5.95511265,1.74294671 C3.91783727,1.90139641 2.35070236,3.64434311 2.35070236,5.70418922 C2.35070236,6.81333712 2.82084283,7.92248502 3.60441029,8.55628383 C1.56713491,9.50698203 0,11.7252778 0,14.1020233 L0,15.6865203 L1.56713491,15.6865203 C2.35070236,12.9928754 4.07455076,10.7745796 6.58196661,9.66543173 L6.58196661,9.66543173 Z M15.8280626,9.66543173 C16.925057,8.71473353 17.7086245,7.13023652 17.7086245,5.54573952 C17.7086245,2.53519521 15.2012086,0 12.2236523,0 C9.24609595,0 6.7386801,2.53519521 6.7386801,5.54573952 C6.7386801,7.13023652 7.52224755,8.71473353 8.61924199,9.66543173 C5.64168567,11.091479 3.4476968,14.260473 3.4476968,17.7463665 L3.4476968,19.1724138 L21.1563212,19.1724138 L21.1563212,17.7463665 C20.9996078,14.260473 18.9623324,11.091479 15.8280626,9.66543173 Z" id="形状"></path>
                    </g>
                </g>
            </g>
        </g>
    </g>
</svg>